<svg width="516" height="629" viewBox="0 0 516 629" fill="none" xmlns="http://www.w3.org/2000/svg">
<path d="M453.18 599.322C441.68 638.822 275.18 632.322 246.18 615.822C228.512 605.77 230.827 586.623 233.449 564.941C235.13 551.034 236.938 536.085 233.68 521.822C230.923 509.75 222.095 495.764 212.528 480.605C193.168 449.93 170.778 414.454 189.517 380.322C217.517 329.322 351.68 269.322 385.68 341.322C404.534 381.249 420.313 401.495 432.25 416.811C441.839 429.114 448.948 438.236 453.18 451.822C462.68 482.322 464.68 559.822 453.18 599.322Z" fill="#FF0099" fill-opacity="0.86"/>
<path d="M382.962 329.099C349.165 352.099 317.962 383.099 271.962 383.099C225.962 383.099 121.962 341.099 81.9623 318.099C41.9624 295.099 4.9624 228.599 0.462402 197.599C-4.0376 166.599 24.9625 143.599 58.9624 100.599C92.9623 57.5991 68.4624 35.5991 162.462 9.59908C256.462 -16.4009 223.788 16.599 339.625 35.5991C455.462 54.5991 464.462 20.5991 498.462 100.599C532.462 180.599 509.462 202.599 489.462 245.599C469.462 288.599 416.76 306.099 382.962 329.099Z" fill="#DFFF1E"/>
</svg>
