<svg width="894" height="156" viewBox="0 0 894 156" fill="none" xmlns="http://www.w3.org/2000/svg">
<path d="M862.852 119.434C847.552 128.619 840.824 128.5 820 128.5C799.176 128.5 809.107 104.686 791 95.5001C772.893 86.3145 723.537 82.8807 721.5 70.5001C719.463 58.1195 700.79 45.3498 716.181 28.1767C731.572 11.0036 733.447 21.8838 776 11.5001C818.553 1.11632 823.615 -0.621421 843.234 2.2174C862.852 5.05621 870.109 9.55008 885.5 41.5C900.891 73.45 891.554 71.827 882.5 89.0001C873.446 106.173 878.151 110.248 862.852 119.434Z" fill="#1EFFC9"/>
<path d="M34.2023 88.9889C36.2574 88.9889 38.1656 88.891 39.9271 88.695C40.5143 88.5971 41.444 88.5481 42.7162 88.5481C44.0862 88.5481 45.1138 88.5971 45.7988 88.695L49.175 88.9889L49.6153 84.5803L50.0557 77.5265L50.3493 63.125L50.6429 51.8096C50.7407 50.34 50.9365 49.3603 51.23 48.8705C51.5236 48.3806 52.2087 48.0867 53.2851 47.9888C54.2637 47.9888 57.0038 47.6948 61.5054 47.107C62.2883 47.0091 63.7073 46.9601 65.7624 46.9601C68.8939 46.9601 71.4872 47.107 73.5423 47.4009C74.6187 47.5969 75.2548 47.8418 75.4506 48.1357C75.7441 48.3316 75.8909 48.7235 75.8909 49.3113C75.9888 49.8992 76.0866 50.438 76.1845 50.9278C76.1845 52.4953 76.0377 55.1405 75.7441 58.8634C75.3527 65.7212 75.157 70.4237 75.157 72.9709C75.157 74.2445 74.8634 78.3103 74.2762 85.1681C73.6891 92.6138 73.3955 97.4633 73.3955 99.7166L73.6891 128.813C73.6891 139.786 73.8848 146.497 74.2762 148.946V149.24C74.2762 150.318 74.0805 151.004 73.6891 151.297C73.2976 151.493 72.8572 151.591 72.3679 151.591C71.8786 151.493 71.5361 151.444 71.3404 151.444C70.5575 151.248 69.5789 151.151 68.4046 151.151C68.0131 151.151 66.741 151.248 64.588 151.444C61.8479 151.738 57.4442 151.885 51.3768 151.885H51.0833C49.7132 151.885 49.0282 151.444 49.0282 150.563C49.0282 148.701 48.9792 145.027 48.8814 139.541C48.8814 134.055 48.7346 130.038 48.441 127.491C48.2453 123.768 48.1474 120.143 48.1474 116.616C48.0496 115.147 48.0006 112.893 48.0006 109.856H43.7437L37.4317 110.003L34.7895 110.15L31.8536 110.003C30.3857 110.003 29.2114 109.954 28.3307 109.856L27.8903 119.115C27.5967 122.543 27.4499 127.001 27.4499 132.487V139.982C27.4499 145.272 27.5478 148.456 27.7435 149.534C27.9392 150.71 27.7435 151.444 27.1563 151.738C26.667 151.934 26.0309 152.032 25.248 152.032C24.563 152.032 24.0737 152.032 23.7801 152.032C22.9972 151.934 21.6761 151.836 19.8168 151.738C17.9574 151.542 16.4406 151.444 15.2663 151.444L11.0093 151.738C10.3243 151.836 7.77992 152.032 3.37619 152.326C1.1254 152.62 0 151.248 0 148.211L0.146791 142.48L0.440373 131.9C0.440373 129.744 0.489303 127.736 0.587163 125.874L0.733955 108.828C0.733955 104.909 0.685024 102.411 0.587163 101.333C0.293582 99.0798 0.146791 96.1407 0.146791 92.5158L0.293582 83.5516C0.391443 82.0821 0.440373 80.1717 0.440373 77.8204C0.440373 75.0773 0.733955 69.3951 1.32112 60.7738L1.76149 50.6339C1.76149 49.8502 1.90828 49.3113 2.20186 49.0174C2.49545 48.7235 2.93582 48.5766 3.52298 48.5766L5.43127 48.7235C6.70345 48.9195 8.36708 49.0664 10.4222 49.1644C12.4772 49.2624 14.4834 49.3113 16.4406 49.3113L23.193 49.1644C24.2694 49.0664 25.4927 49.0174 26.8627 49.0174H27.0095C27.7924 49.0174 28.1839 49.5563 28.1839 50.6339C28.2817 50.8299 28.3307 52.7893 28.3307 56.5121C28.4285 60.137 28.4774 64.4476 28.4774 69.444C28.4774 72.5791 28.3796 76.7918 28.1839 82.0821L27.8903 88.842L34.2023 88.9889Z" fill="black"/>
<path d="M168.178 149.093C168.667 150.073 168.912 150.71 168.912 151.004C168.912 151.787 168.031 152.179 166.269 152.179H155.7C155.309 152.179 154.918 151.836 154.526 151.151C154.135 150.465 153.792 149.779 153.499 149.093C153.205 148.407 152.96 147.82 152.765 147.33C152.275 146.35 151.346 144.097 149.976 140.57C148.703 137.043 147.725 134.251 147.04 132.193C146.746 131.214 146.159 129.793 145.278 127.932C144.398 125.972 143.761 124.601 143.37 123.817C142.979 122.641 142.587 121.858 142.196 121.466C141.902 121.074 141.413 120.878 140.728 120.878C140.043 120.878 139.162 120.927 138.086 121.025C137.107 121.123 136.03 121.221 134.856 121.319C134.073 121.515 131.627 121.613 127.517 121.613C124.679 121.613 121.89 121.711 119.15 121.907C118.269 122.005 116.703 122.054 114.452 122.054L106.672 121.907C106.183 121.907 105.792 122.103 105.498 122.494C105.302 122.886 105.155 123.376 105.058 123.964C104.96 124.454 104.862 124.846 104.764 125.14L103.883 128.813C103.59 130.185 103.198 131.802 102.709 133.663C102.317 135.426 101.975 137.092 101.681 138.659L100.067 144.978L98.8924 149.24C98.5988 150.416 98.3052 151.199 98.0116 151.591C97.8159 151.885 97.4734 152.032 96.9841 152.032H88.3234C87.8341 152.032 87.5895 151.836 87.5895 151.444C87.5895 151.248 87.7852 150.563 88.1766 149.387C88.9595 147.526 89.6445 145.664 90.2317 143.803C93.8525 131.655 96.0055 123.719 96.6905 119.996C97.5713 115.098 99.3817 108.779 102.122 101.039C103.003 97.7082 103.834 94.6712 104.617 91.928C104.911 90.5565 105.351 88.891 105.938 86.9316C107.798 80.0737 109.657 73.6567 111.516 67.6806L115.186 55.9243C115.969 52.8872 116.948 49.7522 118.122 46.5192C118.709 45.0497 119.394 44.7068 120.177 45.4905C120.764 45.8824 121.205 46.5682 121.498 47.5479C121.792 48.5276 121.987 49.2134 122.085 49.6052C122.379 50.7809 124.972 56.659 129.865 67.2397C131.822 71.2565 133.926 76.4978 136.177 82.9638C137.156 85.8049 139.847 91.928 144.251 101.333C146.502 105.938 147.969 109.122 148.655 110.885C150.22 114.314 154.428 122.641 161.279 135.867L163.04 139.541C165.291 144.538 167.003 147.722 168.178 149.093ZM129.718 100.598C130.404 100.5 130.991 100.451 131.48 100.451C131.969 100.451 132.361 100.402 132.654 100.304C132.948 100.206 133.095 100.059 133.095 99.8635C133.095 99.6676 132.948 99.2757 132.654 98.6879C132.165 97.8062 131.04 95.3569 129.278 91.3402C127.517 87.2255 126.293 84.1395 125.608 82.0821C124.63 79.7308 123.847 77.7714 123.26 76.2039C122.77 74.6364 122.379 73.5588 122.085 72.9709C121.89 72.4811 121.645 71.9912 121.351 71.5014C121.156 71.0116 120.96 70.6197 120.764 70.3258C120.568 70.0319 120.373 69.8849 120.177 69.8849C119.883 69.8849 119.541 70.6197 119.15 72.0892C118.856 73.5588 118.611 74.6854 118.416 75.4692C116.654 81.1514 115.382 85.462 114.599 88.4011C114.208 89.8707 113.62 91.6831 112.838 93.8384C112.152 95.8958 111.663 97.3163 111.37 98.1001C111.076 99.0798 110.929 99.8635 110.929 100.451C110.929 101.039 111.37 101.333 112.25 101.333C114.305 101.333 117.437 101.284 121.645 101.186C125.951 100.99 128.642 100.794 129.718 100.598Z" fill="black"/>
<path d="M210.598 72.0892C208.151 72.0892 205.705 73.1179 203.258 75.1753C200.91 77.2326 198.904 80.6615 197.24 85.462C195.576 90.1646 194.745 96.2387 194.745 103.684C194.745 110.934 195.772 116.714 197.827 121.025C199.98 125.238 202.378 128.177 205.02 129.842C207.76 131.508 210.109 132.34 212.066 132.34C213.827 132.34 215.638 131.753 217.497 130.577C219.357 129.303 220.971 127.981 222.341 126.609C222.537 126.413 222.831 126.07 223.222 125.581C223.711 125.091 224.152 124.846 224.543 124.846C225.032 124.846 225.62 125.042 226.305 125.434L238.782 132.34C239.173 132.536 239.76 132.83 240.543 133.222C241.424 133.516 242.011 133.81 242.305 134.104C242.696 134.398 242.892 134.79 242.892 135.279C242.892 135.769 242.745 136.308 242.452 136.896C240.299 140.521 236.923 144.244 232.323 148.064C227.724 151.885 221.363 153.796 213.24 153.796C206.879 153.796 200.763 151.444 194.891 146.742C189.118 141.941 184.469 135.426 180.946 127.197C177.423 118.968 175.662 109.905 175.662 100.01C175.662 90.2136 177.325 81.3963 180.653 73.5588C184.078 65.7212 188.433 59.5981 193.717 55.1895C199.002 50.7809 204.433 48.5766 210.011 48.5766C216.959 48.5766 222.537 50.0461 226.745 52.9852C231.051 55.8263 234.133 58.5694 235.993 61.2146C236.384 61.8024 236.727 62.3413 237.02 62.8311C237.412 63.321 237.608 63.8108 237.608 64.3007C237.608 64.8885 237.069 65.6722 235.993 66.6519C231.491 70.1788 228.262 73.2649 226.305 75.91C225.326 77.1836 224.494 78.1633 223.809 78.8491C223.124 79.4369 222.439 79.7308 221.754 79.7308C221.069 79.7308 220.286 79.241 219.405 78.2613C217.35 76.008 215.736 74.4405 214.561 73.5588C213.485 72.5791 212.164 72.0892 210.598 72.0892Z" fill="black"/>
<path d="M276.848 50.487C277.826 50.487 278.462 50.6829 278.756 51.0748C279.05 51.3687 279.196 51.8585 279.196 52.5443C279.196 52.9362 279.196 53.671 279.196 54.7486C279.294 55.7283 279.343 57.3938 279.343 59.7451C279.343 60.6268 279.245 62.0963 279.05 64.1537C278.854 66.2111 278.707 67.9255 278.609 69.2971C278.022 74.7834 277.728 78.3593 277.728 80.0247V89.7237C277.728 92.3689 277.777 94.4262 277.875 95.8958C279.245 94.4262 280.42 92.9567 281.398 91.4872L286.83 84.4334C289.178 81.3963 291.967 77.6245 295.197 73.1179C298.426 68.6113 300.921 65.0844 302.683 62.5372C302.781 62.4392 303.71 61.2636 305.472 59.0103C305.766 58.6184 306.695 57.4918 308.261 55.6304C309.827 53.671 310.756 52.2014 311.05 51.2217C311.344 50.34 311.735 49.8012 312.224 49.6052C312.812 49.4093 313.399 49.3113 313.986 49.3113C314.573 49.2134 315.013 49.1644 315.307 49.1644C316.383 49.1644 317.46 49.1154 318.536 49.0174C319.613 48.9195 320.591 48.8215 321.472 48.7235H322.059C323.821 48.7235 324.702 49.0664 324.702 49.7522C324.702 50.1441 324.457 50.5849 323.968 51.0748C323.576 51.4667 323.332 51.7116 323.234 51.8096C321.766 53.475 319.564 56.1202 316.628 59.7451C313.692 63.272 311.148 66.407 308.995 69.1501C306.744 72.3831 303.564 76.7428 299.454 82.2291C295.441 87.7153 292.946 91.0463 291.967 92.2219C290.989 93.3976 289.472 95.6509 287.417 98.9818C285.459 102.313 284.481 104.174 284.481 104.566C284.481 105.056 284.921 105.742 285.802 106.623C286.781 107.505 287.612 108.289 288.297 108.975C289.178 110.052 290.891 111.963 293.435 114.706C295.979 117.351 297.986 119.408 299.454 120.878L302.536 124.258C308.408 130.92 312.518 135.279 314.867 137.337C317.411 139.688 320.151 142.48 323.087 145.713C326.121 148.848 327.882 150.661 328.371 151.151L328.665 151.738C328.665 152.13 328.322 152.424 327.637 152.62C327.05 152.914 326.414 152.963 325.729 152.767L321.032 152.914L313.545 153.208C311.099 153.306 309.191 152.767 307.821 151.591C307.527 151.297 306.793 150.612 305.619 149.534C304.542 148.456 303.466 147.33 302.389 146.154C299.454 143.019 296.077 139.541 292.261 135.72C291.184 134.643 289.912 133.516 288.444 132.34L283.894 128.226L278.316 123.523V135.867C278.316 138.023 278.462 140.521 278.756 143.362L279.05 149.975C279.05 150.955 278.854 151.542 278.462 151.738C278.071 151.934 277.631 152.032 277.141 152.032C276.75 152.032 276.456 152.032 276.261 152.032L273.325 151.885L268.481 151.591L262.022 151.885L257.178 152.032C256.493 152.032 256.052 151.836 255.857 151.444C255.759 151.053 255.71 150.122 255.71 148.652L255.563 112.649V98.8349C255.563 87.1765 255.465 80.2697 255.269 78.1143C255.172 76.9387 255.123 75.0773 255.123 72.5301L255.269 62.8311L255.416 51.2217C255.416 50.34 255.906 49.8992 256.884 49.8992C257.471 49.8992 258.01 49.9971 258.499 50.1931C259.086 50.291 259.624 50.34 260.114 50.34L276.848 50.487Z" fill="black"/>
<path d="M404.348 64.3007C404.348 66.26 404.201 68.0725 403.908 69.738C403.81 71.2075 403.125 71.9423 401.853 71.9423C401.461 71.9423 400.923 71.8443 400.238 71.6484C399.553 71.4524 399.015 71.3055 398.623 71.2075C397.156 70.9136 392.899 70.7666 385.853 70.7666L380.275 70.6197C379.002 70.5217 377.143 70.4727 374.696 70.4727C372.935 70.4727 371.614 70.5217 370.733 70.6197C367.797 70.8156 365.204 70.9136 362.953 70.9136L355.173 70.7666C354.39 70.7666 353.95 70.9626 353.852 71.3545C353.754 71.6484 353.705 72.4321 353.705 73.7057C353.705 75.4692 353.656 76.9877 353.559 78.2613C353.363 82.1801 353.265 85.3641 353.265 87.8133V96.4836C353.265 98.541 353.314 100.108 353.412 101.186C354.195 101.284 355.516 101.333 357.375 101.333C359.039 101.431 362.464 101.48 367.651 101.48C369.803 101.48 372.935 101.382 377.045 101.186C380.177 100.99 382.232 100.892 383.21 100.892C384.58 100.892 385.95 100.99 387.321 101.186C388.691 101.284 389.718 101.333 390.403 101.333C391.675 101.333 392.311 101.921 392.311 103.097C392.311 103.488 392.262 104.076 392.165 104.86C392.067 105.546 392.018 106.476 392.018 107.652L392.165 115.441C392.165 116.322 392.067 116.959 391.871 117.351C391.675 117.645 391.333 117.792 390.844 117.792C390.55 117.792 390.11 117.743 389.522 117.645C389.033 117.449 388.593 117.351 388.201 117.351C387.321 117.351 385.657 117.302 383.21 117.204C380.862 117.106 377.632 117.057 373.522 117.057C369.118 117.057 365.302 117.253 362.073 117.645C358.843 118.037 356.886 118.233 356.201 118.233C355.124 118.233 354.488 118.184 354.293 118.086C353.803 118.086 353.51 118.037 353.412 117.939V132.634C354.097 132.634 354.635 132.585 355.027 132.487L359.137 132.34L376.458 132.193C379.981 132.193 382.77 132.242 384.825 132.34L394.954 132.487L401.119 132.34C402.293 132.34 403.076 132.634 403.468 133.222C403.859 133.712 404.055 134.447 404.055 135.426L403.908 138.366L403.761 148.652C403.761 150.22 403.419 151.199 402.734 151.591C402.049 151.885 401.07 152.032 399.798 152.032C398.526 151.934 397.498 151.885 396.715 151.885C392.507 151.885 388.886 151.836 385.853 151.738L370.88 151.591C369.706 151.591 363.834 151.738 353.265 152.032L347.687 152.179L346.806 152.326C346.219 152.326 345.877 152.179 345.779 151.885C345.681 151.493 345.632 150.808 345.632 149.828C345.534 148.75 345.485 146.938 345.485 144.391C345.485 143.607 345.436 142.774 345.338 141.892C345.24 140.913 345.192 139.639 345.192 138.072V117.939C345.192 115.98 345.24 114.069 345.338 112.208C345.534 110.346 345.632 108.975 345.632 108.093C346.023 103.586 346.219 99.2757 346.219 95.161C346.219 90.0666 346.072 86.0499 345.779 83.1108C345.583 79.7798 345.485 76.7428 345.485 73.9996C345.485 67.8276 345.632 60.6268 345.925 52.3974C345.925 51.1238 346.17 50.291 346.659 49.8992C347.149 49.4093 347.834 49.1644 348.715 49.1644L350.916 49.3113C351.797 49.3113 353.216 49.4093 355.173 49.6052C357.131 49.7032 359.528 49.7522 362.366 49.7522C365.595 49.7522 369.412 49.5073 373.816 49.0174C379.1 48.6256 382.623 48.4296 384.385 48.4296C388.397 48.4296 392.067 48.5766 395.394 48.8705L400.679 49.0174C401.951 49.0174 402.782 49.3113 403.174 49.8992C403.565 50.487 403.761 51.5646 403.761 53.1321C403.761 54.0139 403.859 55.5324 404.055 57.6877C404.25 60.2349 404.348 62.4392 404.348 64.3007Z" fill="black"/>
<path d="M487.93 147.918C489.3 150.073 489.985 151.493 489.985 152.179C489.985 152.571 489.74 152.816 489.251 152.914C488.761 153.012 488.321 153.061 487.93 153.061C487.636 153.061 487.391 153.061 487.196 153.061L470.608 153.502C469.825 153.502 469.189 153.159 468.7 152.473C468.309 151.787 467.721 150.563 466.939 148.799C466.449 147.33 465.569 145.37 464.296 142.921C462.339 139.394 458.963 132.781 454.168 123.082L446.681 108.534L447.122 116.322L447.856 127.491C448.443 140.619 448.932 147.869 449.324 149.24C449.422 149.632 449.47 150.122 449.47 150.71C449.47 152.473 448.541 153.355 446.681 153.355C446.094 153.355 445.605 153.306 445.214 153.208C443.648 153.012 439.831 153.208 433.764 153.796C429.654 154.188 427.158 154.384 426.277 154.384C425.005 154.384 424.125 154.139 423.635 153.649C423.244 153.159 423.048 152.326 423.048 151.151L423.195 147.771L422.901 139.247C422.314 129.058 422.021 120.192 422.021 112.649C422.021 108.73 422.167 106.036 422.461 104.566C422.95 102.117 423.195 95.21 423.195 83.8455C423.195 71.9912 422.999 63.0271 422.608 56.953C422.51 56.1692 422.461 55.0915 422.461 53.72C422.461 52.1524 422.608 51.0258 422.901 50.34C423.195 49.6542 423.488 49.3113 423.782 49.3113C424.173 49.2134 424.81 49.1644 425.69 49.1644L428.92 48.8705C435.672 48.0867 441.054 47.6948 445.067 47.6948C456.027 47.6948 464.247 50.536 469.728 56.2182C475.306 61.8024 478.095 69.1012 478.095 78.1143C478.095 85.2661 475.795 92.124 471.196 98.6879C469.238 101.529 466.987 104.076 464.443 106.33L474.718 124.993C482.254 138.512 486.657 146.154 487.93 147.918ZM445.801 88.9889C447.269 88.9889 448.59 88.695 449.764 88.1072C452.504 86.8336 453.874 84.2374 453.874 80.3186C453.874 77.4775 453.434 75.3712 452.553 73.9996C451.672 72.6281 450.547 71.9423 449.177 71.9423C448.1 71.9423 447.171 72.3341 446.388 73.1179C446.29 73.2159 446.29 73.9017 446.388 75.1753C446.486 76.4489 446.535 77.7225 446.535 78.9961C446.535 80.0737 446.486 80.8575 446.388 81.3473C445.996 83.0128 445.801 84.7273 445.801 86.4907L445.654 87.8133L445.801 88.9889Z" fill="black"/>
<path d="M513.893 52.9852C514.089 55.2385 514.529 57.6877 515.214 60.3329C515.997 62.9781 517.074 66.407 518.444 70.6197C519.422 73.6567 521.918 80.4656 525.93 91.0463C530.04 101.627 532.78 108.436 534.15 111.473C535.423 114.706 537.135 119.653 539.288 126.315L542.518 136.308L544.426 132.928L548.536 124.846C549.123 123.474 550.934 119.898 553.967 114.118C560.328 102.264 564.487 94.0344 566.444 89.4298C567.912 86.0009 570.016 81.3963 572.757 75.6161C573.442 74.0486 574.273 72.1872 575.252 70.0319C576.328 67.7786 577.062 66.1621 577.454 65.1824C577.65 64.5946 578.237 62.7821 579.215 59.7451C580.292 56.6101 581.319 53.9649 582.298 51.8096C583.374 49.6542 584.255 48.5766 584.94 48.5766C585.723 48.5766 586.114 49.7032 586.114 51.9565C586.114 53.2301 586.066 54.5037 585.968 55.7773C585.87 56.953 585.772 58.0306 585.674 59.0103L585.234 64.3007C584.94 69.3951 584.793 78.8001 584.793 92.5158C584.793 97.3163 584.696 103.439 584.5 110.885C584.402 118.233 584.255 123.18 584.059 125.727L583.913 149.681V150.122C583.913 151.102 583.374 151.591 582.298 151.591C579.656 151.591 577.943 151.542 577.16 151.444C576.671 151.346 576.426 150.955 576.426 150.269L576.573 147.771C576.573 143.558 576.671 136.7 576.867 127.197C577.062 117.596 577.307 111.228 577.601 108.093C577.698 105.742 577.747 100.794 577.747 93.2506C577.747 89.1359 577.698 86.0009 577.601 83.8455C575.546 87.4704 574.322 89.7237 573.931 90.6054C573.148 91.977 572.023 94.1323 570.555 97.0714C570.261 97.6592 569.919 98.345 569.527 99.1288C569.136 99.9125 568.695 100.696 568.206 101.48C566.934 104.027 564.096 109.758 559.692 118.674L554.995 128.373C554.016 130.038 552.401 133.075 550.151 137.484C547.9 141.892 546.383 144.88 545.6 146.448L543.251 151.151C542.664 152.424 541.93 153.551 541.05 154.53C540.267 155.51 539.582 156 538.995 156C538.407 156 537.967 155.853 537.673 155.559C537.478 155.265 537.282 154.775 537.086 154.09C536.891 153.502 536.744 153.061 536.646 152.767C536.45 152.179 535.374 149.093 533.417 143.509C531.459 137.827 529.942 133.761 528.866 131.312C527.496 127.981 525.734 123.621 523.582 118.233C521.429 112.844 520.01 108.975 519.325 106.623C518.444 104.174 517.661 101.823 516.976 99.5696L514.774 92.6628C512.915 87.1765 511.838 83.8945 511.545 82.8169L511.251 88.2542C511.153 90.3115 511.104 93.4465 511.104 97.6592C511.104 111.571 510.909 121.27 510.517 126.756C510.419 128.128 510.37 130.92 510.37 135.133L510.517 149.975V150.416C510.517 152.179 509.832 152.963 508.462 152.767C507.973 152.571 507.19 152.473 506.113 152.473C505.037 152.473 504.254 152.473 503.765 152.473C503.275 152.473 503.031 152.13 503.031 151.444L503.178 148.799L502.884 134.692L502.444 103.978C502.444 98.9818 502.541 93.0057 502.737 86.0499C502.933 78.9961 503.129 74.2445 503.324 71.7953C503.618 68.5623 503.814 65.0354 503.912 61.2146C504.107 57.2958 504.205 54.1118 504.205 51.6626V51.0748C504.205 49.8012 504.352 49.1154 504.645 49.0174C504.939 48.8215 505.428 48.7725 506.113 48.8705H507.288C508.853 48.8705 510.077 48.8215 510.957 48.7235C512.621 48.7235 513.6 50.1441 513.893 52.9852Z" fill="black"/>
<path d="M678.362 149.093C678.852 150.073 679.096 150.71 679.096 151.004C679.096 151.787 678.215 152.179 676.454 152.179H665.885C665.494 152.179 665.102 151.836 664.711 151.151C664.319 150.465 663.977 149.779 663.683 149.093C663.39 148.407 663.145 147.82 662.949 147.33C662.46 146.35 661.53 144.097 660.16 140.57C658.888 137.043 657.909 134.251 657.224 132.193C656.931 131.214 656.344 129.793 655.463 127.932C654.582 125.972 653.946 124.601 653.555 123.817C653.163 122.641 652.772 121.858 652.38 121.466C652.087 121.074 651.597 120.878 650.912 120.878C650.227 120.878 649.347 120.927 648.27 121.025C647.291 121.123 646.215 121.221 645.041 121.319C644.258 121.515 641.811 121.613 637.701 121.613C634.863 121.613 632.074 121.711 629.334 121.907C628.453 122.005 626.888 122.054 624.637 122.054L616.857 121.907C616.368 121.907 615.976 122.103 615.683 122.494C615.487 122.886 615.34 123.376 615.242 123.964C615.144 124.454 615.046 124.846 614.949 125.14L614.068 128.813C613.774 130.185 613.383 131.802 612.893 133.663C612.502 135.426 612.16 137.092 611.866 138.659L610.251 144.978L609.077 149.24C608.783 150.416 608.49 151.199 608.196 151.591C608 151.885 607.658 152.032 607.169 152.032H598.508C598.019 152.032 597.774 151.836 597.774 151.444C597.774 151.248 597.97 150.563 598.361 149.387C599.144 147.526 599.829 145.664 600.416 143.803C604.037 131.655 606.19 123.719 606.875 119.996C607.756 115.098 609.566 108.779 612.306 101.039C613.187 97.7082 614.019 94.6712 614.802 91.928C615.095 90.5565 615.536 88.891 616.123 86.9316C617.982 80.0737 619.842 73.6567 621.701 67.6806L625.371 55.9243C626.154 52.8872 627.132 49.7522 628.307 46.5192C628.894 45.0497 629.579 44.7068 630.362 45.4905C630.949 45.8824 631.389 46.5682 631.683 47.5479C631.976 48.5276 632.172 49.2134 632.27 49.6052C632.564 50.7809 635.157 56.659 640.05 67.2397C642.007 71.2565 644.111 76.4978 646.362 82.9638C647.34 85.8049 650.032 91.928 654.435 101.333C656.686 105.938 658.154 109.122 658.839 110.885C660.405 114.314 664.613 122.641 671.463 135.867L673.225 139.541C675.475 144.538 677.188 147.722 678.362 149.093ZM639.903 100.598C640.588 100.5 641.175 100.451 641.665 100.451C642.154 100.451 642.545 100.402 642.839 100.304C643.132 100.206 643.279 100.059 643.279 99.8635C643.279 99.6676 643.132 99.2757 642.839 98.6879C642.35 97.8062 641.224 95.3569 639.463 91.3402C637.701 87.2255 636.478 84.1395 635.793 82.0821C634.814 79.7308 634.031 77.7714 633.444 76.2039C632.955 74.6364 632.564 73.5588 632.27 72.9709C632.074 72.4811 631.83 71.9912 631.536 71.5014C631.34 71.0116 631.145 70.6197 630.949 70.3258C630.753 70.0319 630.557 69.8849 630.362 69.8849C630.068 69.8849 629.726 70.6197 629.334 72.0892C629.041 73.5588 628.796 74.6854 628.6 75.4692C626.839 81.1514 625.566 85.462 624.784 88.4011C624.392 89.8707 623.805 91.6831 623.022 93.8384C622.337 95.8958 621.848 97.3163 621.554 98.1001C621.261 99.0798 621.114 99.8635 621.114 100.451C621.114 101.039 621.554 101.333 622.435 101.333C624.49 101.333 627.621 101.284 631.83 101.186C636.135 100.99 638.827 100.794 639.903 100.598Z" fill="black"/>
<path d="M713.59 45.6375C715.743 45.6375 717.309 45.8824 718.287 46.3723C719.364 46.7641 720.195 47.4989 720.783 48.5766C721.761 50.6339 722.984 53.2791 724.452 56.5121L729.884 68.2684L736.783 83.4047C738.055 86.1478 739.719 89.7727 741.774 94.2793C743.829 98.7859 745.297 101.921 746.177 103.684C747.841 107.113 748.918 109.22 749.407 110.003L758.067 127.05L757.774 118.527L757.187 104.125V99.7166C757.187 94.3283 757.285 88.891 757.48 83.4047C757.48 79.29 757.431 75.959 757.333 73.4118L757.187 62.2433L757.774 48.1357C757.774 46.6662 758.508 45.9314 759.976 45.9314C760.465 45.9314 761.444 46.0783 762.912 46.3723C763.792 46.5682 764.722 46.6662 765.701 46.6662C766.679 46.6662 767.462 46.6662 768.049 46.6662C768.832 46.6662 769.321 46.7641 769.517 46.9601C769.811 47.156 769.958 47.4989 769.958 47.9888C769.958 48.3806 769.909 48.8215 769.811 49.3113C769.713 49.8012 769.664 50.34 769.664 50.9278L769.517 63.5659L769.224 93.2506L769.077 97.5123C769.077 100.843 769.126 103.88 769.224 106.623C769.321 109.367 769.419 111.62 769.517 113.383C769.811 117.596 769.958 121.123 769.958 123.964C769.958 123.572 770.104 129.401 770.398 141.452L770.691 149.681V149.975C770.691 151.934 769.762 152.816 767.902 152.62C767.609 152.522 767.022 152.473 766.141 152.473L761.884 152.62H761.003C760.318 152.62 759.78 152.473 759.389 152.179C759.095 151.885 758.557 151.053 757.774 149.681C757.48 148.995 757.089 148.015 756.6 146.742C756.11 145.468 755.523 144.048 754.838 142.48C750.63 131.9 747.596 124.699 745.737 120.878C743.584 116.763 738.153 104.958 729.443 85.462C727.486 81.4453 725.284 77.1836 722.838 72.677L718.581 65.0354L719.021 78.9961L719.168 87.6664C719.364 94.1323 719.461 98.394 719.461 100.451C719.461 108.485 719.608 116.567 719.902 124.699L720.049 136.161C720.049 138.219 720.146 141.207 720.342 145.125L720.636 150.269V150.563C720.636 151.542 720.391 152.179 719.902 152.473C719.413 152.767 718.727 152.914 717.847 152.914L714.617 153.061C712.562 153.355 710.36 153.502 708.012 153.502C705.272 153.502 703.021 153.551 701.259 153.649L693.773 153.796C692.305 153.796 691.327 153.502 690.837 152.914C690.348 152.424 690.054 151.836 689.956 151.151C689.859 150.465 689.761 149.975 689.663 149.681C689.271 147.918 689.076 145.762 689.076 143.215C689.076 140.864 689.125 138.855 689.223 137.19C689.223 132.095 689.32 126.168 689.516 119.408C689.712 112.551 689.956 107.652 690.25 104.713L690.984 94.2793C692.158 78.0164 692.745 68.8562 692.745 66.7989C692.745 59.0593 692.892 53.2791 693.186 49.4583C693.382 46.8131 694.752 45.4905 697.296 45.4905C698.079 45.4905 698.813 45.5395 699.498 45.6375C700.183 45.7355 700.721 45.7844 701.113 45.7844L713.59 45.6375Z" fill="black"/>
<path d="M829.963 60.4798C829.963 54.4057 830.012 50.6339 830.11 49.1644C830.11 47.303 830.746 46.1763 832.018 45.7844C833.29 45.3926 835.15 45.1966 837.596 45.1966C839.749 45.1966 842.489 45.0987 845.816 44.9027C849.241 44.6088 851.884 44.3149 853.743 44.021C855.113 43.923 856.092 44.1679 856.679 44.7558C857.266 45.2456 857.56 46.1273 857.56 47.4009C857.56 47.7928 857.462 48.8705 857.266 50.6339C857.07 52.1035 856.972 61.8514 856.972 79.8778V113.089C856.972 118.086 857.021 123.621 857.119 129.695C857.315 135.671 857.511 141.06 857.706 145.86C857.902 150.661 858 151.983 858 149.828C858 151.395 857.217 152.179 855.651 152.179C854.966 152.179 854.379 152.13 853.89 152.032C853.498 151.934 852.715 151.885 851.541 151.885C850.367 151.885 848.507 151.983 845.963 152.179C843.223 152.375 841.315 152.473 840.238 152.473C838.379 152.473 836.96 152.081 835.981 151.297C835.101 150.514 834.171 149.093 833.192 147.036L830.697 142.039C827.761 135.475 825.168 130.332 822.917 126.609C821.645 124.454 818.415 118.527 813.229 108.828L806.77 96.6306V105.595C806.77 106.379 806.721 107.358 806.623 108.534C806.623 109.709 806.672 111.032 806.77 112.502C806.77 117.596 806.819 124.258 806.917 132.487C807.112 140.717 807.357 145.664 807.651 147.33C807.749 147.82 807.797 148.407 807.797 149.093C807.797 150.073 807.602 150.71 807.21 151.004C806.819 151.199 806.085 151.248 805.008 151.151C803.443 151.151 801.583 151.248 799.43 151.444C797.375 151.64 795.418 151.836 793.559 152.032C792.091 152.228 791.112 151.983 790.623 151.297C790.231 150.612 790.085 149.093 790.183 146.742C790.183 143.215 790.036 136.994 789.742 128.079C789.351 118.772 789.106 110.689 789.008 103.831C789.008 96.8755 789.155 89.8217 789.449 82.6699C789.644 73.6567 789.742 67.4847 789.742 64.1537C789.742 59.6471 789.595 56.3651 789.302 54.3078C789.106 52.5443 789.008 51.4177 789.008 50.9278C789.008 49.1644 789.302 47.9888 789.889 47.4009C790.476 46.7152 791.259 46.3723 792.238 46.3723C792.727 46.3723 793.706 46.4212 795.173 46.5192C796.641 46.5192 798.745 46.1763 801.485 45.4905C802.562 45.2946 803.638 45.1966 804.715 45.1966C805.302 45.1966 806.134 45.2456 807.21 45.3436C808.287 45.4416 809.706 45.4905 811.467 45.4905C813.718 45.4905 815.577 46.3723 817.045 48.1357C818.611 49.8992 820.275 52.3974 822.036 55.6304L823.504 58.2755C824.678 60.4309 826.097 62.7331 827.761 65.1824L829.963 68.5623V60.4798Z" fill="black"/>
</svg>
