<svg width="288" height="459" viewBox="0 0 288 459" fill="none" xmlns="http://www.w3.org/2000/svg">
<path d="M0 217.686C0 217.686 0 265.279 14.6815 303.56C29.363 341.841 14.6815 351.669 23.411 388.398C32.1406 425.127 28.1726 452.027 55.1548 455.131C82.137 458.235 198.399 468.064 230.142 435.991C261.886 403.918 246.014 400.814 230.142 388.398C214.271 375.983 209.509 402.366 209.509 364.085C209.509 325.804 284.107 285.971 287.678 241.482C291.249 196.994 264.664 180.957 230.142 80.0818C195.621 -20.7936 111.5 5.07191 93.2474 0.416119C74.9947 -4.23967 32.1406 30.9374 23.411 67.6664C14.6815 104.395 0 217.686 0 217.686Z" fill="#1EFFC9"/>
</svg>
