<?xml version="1.0" standalone="no"?>
<!DOCTYPE svg PUBLIC "-//W3C//DTD SVG 20010904//EN"
 "http://www.w3.org/TR/2001/REC-SVG-20010904/DTD/svg10.dtd">
<svg version="1.0" xmlns="http://www.w3.org/2000/svg"
 width="256.000000pt" height="256.000000pt" viewBox="0 0 256.000000 256.000000"
 preserveAspectRatio="xMidYMid meet">
<metadata>
Created by potrace 1.11, written by Peter Selinger 2001-2013
</metadata>
<g transform="translate(0.000000,256.000000) scale(0.100000,-0.100000)"
fill="#000000" stroke="none">
<path d="M1575 2160 c-93 -14 -102 -18 -108 -42 -3 -13 -9 -151 -12 -308 -4
-157 -10 -322 -14 -368 l-6 -83 -180 -2 c-99 -1 -185 2 -190 5 -6 4 -8 77 -3
205 3 109 3 280 0 378 l-7 180 -225 6 c-124 3 -230 2 -236 -3 -21 -15 -50
-833 -36 -1003 5 -64 6 -289 1 -535 -9 -509 -16 -476 99 -464 43 4 147 8 232
9 l155 0 1 290 c0 160 4 340 9 402 l8 112 157 3 c86 2 164 2 172 0 20 -4 26
-87 33 -467 4 -165 8 -311 11 -324 l5 -24 217 8 c119 4 219 8 221 10 2 2 2
165 1 362 -5 651 -4 777 8 923 14 171 19 270 28 520 6 170 5 187 -11 200 -22
18 -234 24 -330 10z"/>
</g>
</svg>
